# xmcd
#
# Track frame offsets:
#	150
#	15264
#	25985
#	42792
#	56954
#	70525
#	91360
#	106641
#	116501
#	128597
#	142251
#	154998
#	170939
#
# Disc length: 2427 seconds
#
# Revision: 1
# Processed by: cddbd v1.5.2PL0 Copyright (c) Steve Scherf et al.
# Submitted via: audiograbber 1.83.01
#
DISCID=ab09790d
DTITLE=Hayseed Dixie - Compilation
DYEAR=1900
DGENRE=Rockgrass
TTITLE0=Corn Liquor
TTITLE1=Ace of Spades
TTITLE2=Whole Lotta Rosie
TTITLE3=Fat Bottom Girls
TTITLE4=Kirby Hill
TTITLE5=Roses
TTITLE6=Big Bottom
TTITLE7=I Love Rock and Roll
TTITLE8=T.N.T.
TTITLE9=Hell's Bells
TTITLE10=Dirty Deeds Done Dirt Cheap
TTITLE11=You Shook Me All Night Long
TTITLE12=Highway To Hell
EXTD=
EXTT0=
EXTT1=
EXTT2=
EXTT3=
EXTT4=
EXTT5=
EXTT6=
EXTT7=
EXTT8=
EXTT9=
EXTT10=
EXTT11=
EXTT12=
PLAYORDER=
